<svg xmlns="http://www.w3.org/2000/svg" viewBox="0 0 365.63 367.74">
  <path
    d="M211.58 0c-1.06-.023-2.204.24-3.655.73l-160.8 47.217c-1.338.312-1.26.673-.146 1.535l142.74 113.95c2.628 2.179 3.865 2.449 7.528 1.315l160.06-55.474c3.673-1.35 3.928-1.678.147-4.166L216.974 2.347C214.804.819 213.33.042 211.565.008zm-18.345 13.814c3.202-.023 6.582.328 10.086 1.096 14.016 3.073 23.956 11.638 22.146 19.076-1.81 7.438-14.635 10.967-28.651 7.894-14.016-3.073-23.956-11.565-22.146-19.003 1.358-5.579 8.959-9.016 18.564-9.063zm-90.63 27.555c3.202-.023 6.655.328 10.159 1.096 14.016 3.073 23.883 11.565 22.073 19.003-1.81 7.438-14.635 11.04-28.651 7.967C92.17 66.362 82.303 57.797 84.113 50.36c1.358-5.578 8.886-8.942 18.491-8.99zm137.33 7.016c3.202-.023 6.656.402 10.159 1.17 14.016 3.073 23.883 11.565 22.073 19.003-1.81 7.438-14.635 10.967-28.651 7.893-14.016-3.073-23.883-11.565-22.073-19.003 1.358-5.578 8.886-9.015 18.492-9.063zM37.045 57.23c-.293.075-.388.534-.585 1.462L.208 240.021c-.422 1.886-.348 2.354 1.389 3.874l137.7 118.7c3.203 3.061 3.876 3.022 4.312-.73l40.126-183.89c.841-2.506-.025-3.885-1.462-5.044L38.503 58.12c-.74-.624-1.168-.952-1.461-.877zm111.83 20.684c3.202-.023 6.655.328 10.159 1.097 14.016 3.073 23.883 11.565 22.073 19.003-1.81 7.438-14.635 10.967-28.651 7.893-14.016-3.073-23.883-11.565-22.073-19.003 1.358-5.578 8.886-8.942 18.491-8.99zm138.8 6.067c3.202-.024 6.655.328 10.159 1.096 14.016 3.073 23.883 11.565 22.073 19.003-1.81 7.438-14.635 11.04-28.651 7.967-14.016-3.073-23.883-11.638-22.073-19.076 1.358-5.579 8.886-8.943 18.492-8.99zm-241.71 6.65c.54-.053 1.131-.029 1.681 0 6.596.35 13.738 6.531 17.907 16.446 5.558 13.219 3.705 28.055-4.093 33.109-7.798 5.054-18.634-1.545-24.192-14.764-5.558-13.22-3.705-28.055 4.093-33.11 1.462-.947 2.985-1.52 4.605-1.68zm150.64 23.828c3.202-.023 6.655.328 10.159 1.096 14.016 3.073 23.883 11.565 22.073 19.003-1.81 7.438-14.635 10.967-28.651 7.894-14.016-3.073-23.883-11.565-22.073-19.003 1.358-5.579 8.886-8.943 18.491-8.99zm168.18 5.043a7.78 7.78 0 00-1.242.365l-164.38 57.02c-3.348 1.379-3.248 1.941-3.801 4.459l-40.053 183.31c-.136 2.698-1.13 3.926 2.046 2.485l161.97-60.518c3.143-1.504 3.746-1.768 4.093-4.824l42.026-180.75c.349-1.273.264-1.727-.657-1.535zm-26.677 29.747c4.628.075 8.26 2.326 9.867 6.65 3.213 8.65-2.974 22.495-13.887 30.917-10.912 8.422-22.368 8.211-25.58-.439-3.214-8.65 2.974-22.494 13.886-30.917 5.456-4.21 11.086-6.287 15.714-6.212zm-199.24 15.86c6.679.17 13.965 6.448 18.199 16.518 5.558 13.219 3.778 28.055-4.02 33.109s-18.634-1.618-24.192-14.837c-5.558-13.22-3.705-27.982 4.093-33.036 1.462-.948 2.984-1.521 4.605-1.681.439-.046.87-.085 1.315-.073zm-58.69 21.196c6.679.17 13.965 6.449 18.199 16.518 5.558 13.219 3.778 28.055-4.02 33.109s-18.634-1.618-24.192-14.837c-5.558-13.22-3.705-27.982 4.093-33.036 1.462-.948 2.984-1.521 4.605-1.681.439-.046.87-.085 1.315-.073zM22.365 207.28c.54-.054 1.131-.028 1.68 0 6.597.349 13.666 6.603 17.835 16.518 5.558 13.219 3.778 27.982-4.02 33.036-7.798 5.054-18.634-1.545-24.192-14.764-5.558-13.22-3.705-28.055 4.093-33.11 1.462-.947 2.985-1.52 4.605-1.68zm254.06 17.54c4.529.148 8.14 2.395 9.72 6.652 3.214 8.65-3.047 22.494-13.96 30.916-10.911 8.422-22.367 8.211-25.58-.439-3.214-8.65 3.047-22.494 13.96-30.916 4.774-3.684 9.641-5.737 13.887-6.14a15.297 15.297 0 011.973-.072zm-164.23 58.692c.54-.054 1.131-.028 1.681 0 6.596.349 13.738 6.53 17.907 16.445 5.558 13.219 3.705 28.055-4.093 33.109-7.798 5.054-18.561-1.545-24.119-14.764-5.558-13.22-3.778-28.055 4.02-33.11 1.462-.947 2.984-1.52 4.604-1.68zm97.281 19.003c4.629.075 8.26 2.253 9.867 6.578 3.213 8.65-2.974 22.494-13.887 30.916-10.912 8.422-22.368 8.284-25.581-.366-3.213-8.65 2.974-22.494 13.887-30.917 5.456-4.21 11.086-6.287 15.714-6.212z" />
</svg>