<svg xmlns="http://www.w3.org/2000/svg" viewBox="0 0 425 425">
  <path style="text-indent:0;text-align:start;line-height:normal;text-transform:none;block-progression:tb;marker:none"
    d="M157.486 290.866l-4.593 2.462c-8.11 4.33-13.64 12.94-17.224 23.039-3.586 10.099-5.24 21.852-5.03 33.166.209 11.314 2.241 22.188 6.5 30.56 4.258 8.371 11.365 14.486 20.577 14.263 4.488-.108 8.362-1.515 11.135-4.125 2.773-2.61 4.325-6.166 5.111-10.061 1.573-7.79.345-17.377-1.813-27.68-4.318-20.604-12.743-44.315-14.1-56.421z"
    font-weight="400" color="#000" stroke="#000" stroke-width="14.177" overflow="visible" font-family="Sans" />
  <g font-weight="400" color="#000" font-family="Sans">
    <path style="text-indent:0;text-align:start;line-height:normal;text-transform:none;block-progression:tb;marker:none"
      d="M235.97 291.336l-3.865 2.476c-6.828 4.355-11.097 12.295-13.558 21.409-2.46 9.114-3.113 19.55-2.158 29.472.955 9.923 3.482 19.335 7.792 26.397 4.31 7.063 10.97 11.949 19.045 11.125 3.935-.4 7.241-1.9 9.499-4.381 2.258-2.481 3.378-5.711 3.803-9.186.85-6.948-.88-15.285-3.479-24.187-5.196-17.802-14.212-38.053-16.23-48.594z"
      stroke="#000" stroke-width="14.177" overflow="visible" />
    <path
      d="M235.97 291.336l-3.865 2.476c-6.828 4.355-11.097 12.295-13.558 21.409-2.46 9.114-3.113 19.55-2.158 29.472.955 9.923 3.482 19.335 7.792 26.397 4.31 7.063 10.97 11.949 19.045 11.125 3.935-.4 7.241-1.9 9.499-4.381 2.258-2.481 3.378-5.711 3.803-9.186.85-6.948-.88-15.285-3.479-24.187-5.196-17.802-14.212-38.053-16.23-48.594z"
      style="text-indent:0;text-align:start;line-height:normal;text-transform:none;block-progression:tb;marker:none"
      fill="#ff9298" overflow="visible" />
  </g>
  <path
    d="M118.187 292.941l-5.178.594c-9.135 1.03-17.451 6.994-24.51 15.057-7.059 8.063-12.934 18.376-16.915 28.969-3.98 10.593-6.103 21.45-5.235 30.801.869 9.352 5.218 17.658 13.862 20.85 4.212 1.556 8.33 1.678 11.87.276 3.541-1.403 6.296-4.136 8.464-7.465 4.337-6.66 6.734-16.024 8.529-26.395 3.59-20.744 4.51-45.89 7.716-57.643z"
    style="text-indent:0;text-align:start;line-height:normal;text-transform:none;block-progression:tb;marker:none"
    font-weight="400" color="#000" stroke="#000" stroke-width="14.177" overflow="visible" font-family="Sans" />
  <path d="M124.018 78.02c-36.664-24.978-58.825-8.391-96.521-7.855 29.671 19.01 50.037 26.525 63.91 57.37z" fill="none"
    stroke="#000" stroke-width="13.464" />
  <path
    d="M339.709 236.139c11.499.932 35.826-27.937 45.473-19.635 9.647 8.303 1.66 23.328-6.85 25.948-8.51 2.621-18.385-7.75-23.704-2.959-5.32 4.791 17.979 16.406 30.036 14.02 12.057-2.385 20.633-10.239 23.233-22.643 2.6-12.405.503-26.972-14.544-36.078-15.046-9.106-44.51 5.866-56.587 13.806-12.076 7.939-14.75 10.11-13.64 16.925 1.11 6.815 5.084 9.683 16.583 10.616z"
    fill="#ffc5bb" stroke="#000" stroke-width="12.286" />
  <path
    d="M339.709 236.139c11.499.932 35.826-27.937 45.473-19.635 9.647 8.303 1.66 23.328-6.85 25.948-8.51 2.621-18.385-7.75-23.704-2.959-5.32 4.791 17.979 16.406 30.036 14.02 12.057-2.385 20.633-10.239 23.233-22.643 2.6-12.405.503-26.972-14.544-36.078-15.046-9.106-44.51 5.866-56.587 13.806-12.076 7.939-14.75 10.11-13.64 16.925 1.11 6.815 5.084 9.683 16.583 10.616z"
    fill="#ff9298" />
  <path
    d="M381.75 191.937c-15.494-.047-35.547 10.455-44.982 16.657-12.076 7.94-14.755 10.11-13.645 16.924 1.11 6.815 5.1 9.7 16.599 10.632 11.499.933 35.807-27.943 45.454-19.64 4.101 3.53 5.034 8.269 4.076 12.759a186.826 186.826 0 0017.514-18.991c-2.227-5.827-6.415-11.243-13.41-15.476-3.29-1.992-7.268-2.852-11.606-2.865zm-23.687 46.28c-1.279.019-2.429.373-3.426 1.27-2.752 2.48 2.168 6.795 9.215 10.043 3.255-2.182 6.411-4.47 9.51-6.823-5.48-.817-11.06-4.548-15.3-4.49z"
    fill="#ffc5bb" />
  <path style="text-indent:0;text-align:start;line-height:normal;text-transform:none;block-progression:tb;marker:none"
    d="M118.187 292.941l-5.178.594c-9.135 1.03-17.451 6.994-24.51 15.057-7.059 8.063-12.934 18.376-16.915 28.969-3.98 10.593-6.103 21.45-5.235 30.801.869 9.352 5.218 17.658 13.862 20.85 4.212 1.556 8.33 1.678 11.87.276 3.541-1.403 6.296-4.136 8.464-7.465 4.337-6.66 6.734-16.024 8.529-26.395 3.59-20.744 4.51-45.89 7.716-57.643z"
    font-weight="400" color="#000" fill="#ff9298" overflow="visible" font-family="Sans" />
  <path
    d="M-794.485 155.347c0 47.7-38.668 86.368-86.368 86.368-47.7 0-86.368-38.669-86.368-86.368 0-47.7 38.668-86.368 86.368-86.368 47.7 0 86.368 38.668 86.368 86.368z"
    transform="matrix(1.83648 0 0 1.6566 1808.052 -50.74)" fill="#ff9298" stroke="#000" stroke-width="7.719" />
  <g font-weight="400" color="#000" font-family="Sans">
    <path
      d="M293.713 283.984l-3.655 2.779c-6.456 4.89-10.073 13.146-11.793 22.429-1.72 9.282-1.532 19.736.218 29.55 1.749 9.814 5.024 18.993 9.888 25.686 4.864 6.693 11.894 11.028 19.877 9.559 3.89-.717 7.065-2.477 9.116-5.131 2.051-2.655 2.908-5.964 3.053-9.462.29-6.994-2.107-15.165-5.412-23.829-6.61-17.327-17.224-36.788-20.082-47.132z"
      style="text-indent:0;text-align:start;line-height:normal;text-transform:none;block-progression:tb;marker:none"
      stroke="#000" stroke-width="14.177" overflow="visible" />
    <path style="text-indent:0;text-align:start;line-height:normal;text-transform:none;block-progression:tb;marker:none"
      d="M293.713 283.984l-3.655 2.779c-6.456 4.89-10.073 13.146-11.793 22.429-1.72 9.282-1.532 19.736.218 29.55 1.749 9.814 5.024 18.993 9.888 25.686 4.864 6.693 11.894 11.028 19.877 9.559 3.89-.717 7.065-2.477 9.116-5.131 2.051-2.655 2.908-5.964 3.053-9.462.29-6.994-2.107-15.165-5.412-23.829-6.61-17.327-17.224-36.788-20.082-47.132z"
      fill="#ff9298" overflow="visible" />
  </g>
  <path
    d="M157.486 290.866l-4.593 2.462c-8.11 4.33-13.64 12.94-17.224 23.039-3.586 10.099-5.24 21.852-5.03 33.166.209 11.314 2.241 22.188 6.5 30.56 4.258 8.371 11.365 14.486 20.577 14.263 4.488-.108 8.362-1.515 11.135-4.125 2.773-2.61 4.325-6.166 5.111-10.061 1.573-7.79.345-17.377-1.813-27.68-4.318-20.604-12.743-44.315-14.1-56.421z"
    style="text-indent:0;text-align:start;line-height:normal;text-transform:none;block-progression:tb;marker:none"
    font-weight="400" color="#000" fill="#ff9298" overflow="visible" font-family="Sans" />
  <path
    d="M348.996 206.607c0 79.02-71.013 143.078-158.613 143.078S31.77 285.627 31.77 206.607 102.783 63.53 190.383 63.53s158.613 64.058 158.613 143.077z"
    fill="#ff9298" />
  <path
    d="M190.394 63.52c-87.6 0-158.632 64.075-158.632 143.095 0 30.846 10.835 59.41 29.24 82.776 17.45 4.495 35.854 6.9 54.905 6.9 109.341 0 198.134-79.283 199.626-177.595-29.026-33.572-74.284-55.175-125.14-55.175z"
    fill="#ffc5bb" />
  <path style="text-indent:0;text-align:start;line-height:normal;text-transform:none;block-progression:tb;marker:none"
    d="M111.047 134.914c-16.975 0-31.106 12.393-31.106 28.031 0 15.639 14.131 28.032 31.106 28.032 9.192 0 17.552-3.656 23.284-9.472 5.797 9.355 17.104 15.62 29.885 15.62 18.534 0 34-13.152 34-29.84 0-16.687-15.466-29.84-34-29.84-10.596 0-20.175 4.3-26.45 11.1-5.467-8.216-15.476-13.631-26.72-13.631z"
    font-weight="400" color="#000" stroke="#000" stroke-width="3.78" overflow="visible" font-family="Sans" />
  <path
    d="M139.269 162.935c0 13.883-12.631 25.138-28.213 25.138-15.58 0-28.212-11.255-28.212-25.138 0-13.884 12.631-25.138 28.212-25.138 15.582 0 28.213 11.254 28.213 25.138z"
    fill="#fff" />
  <path
    d="M195.331 167.275c0 14.882-13.926 26.946-31.105 26.946-17.18 0-31.106-12.064-31.106-26.946 0-14.882 13.926-26.946 31.106-26.946 17.179 0 31.105 12.064 31.105 26.946z"
    fill="#fff" />
  <path
    d="M163.79 168.598a7.14 7.14 0 11-14.279 0 7.14 7.14 0 0114.279 0zm-41.486-2.576a7.14 7.14 0 11-14.279 0 7.14 7.14 0 0114.279 0z" />
  <path
    d="M181.535 227.713c0 27.847-22.575 50.421-50.422 50.421-27.846 0-50.42-22.574-50.42-50.42 0-27.848 22.574-50.422 50.42-50.422 27.847 0 50.422 22.574 50.422 50.421z"
    fill="#ff9298" stroke="#000" stroke-width="9.451" />
  <path
    d="M181.535 227.713c0 27.847-22.575 50.421-50.422 50.421-27.846 0-50.42-22.574-50.42-50.42 0-27.848 22.574-50.422 50.42-50.422 27.847 0 50.422 22.574 50.422 50.421z"
    fill="#ff9298" />
  <path
    d="M131.108 177.282c-27.847 0-50.411 22.588-50.411 50.435 0 15.088 6.625 28.62 17.127 37.86 33.33-4.842 62.575-22.247 82.817-47.244-4.398-23.362-24.893-41.05-49.533-41.05z"
    fill="#ffc5bb" />
  <path
    d="M158.39 230.03a7.14 7.14 0 11-14.28 0 7.14 7.14 0 0114.28 0zm-41.487-2.576a7.14 7.14 0 11-14.278 0 7.14 7.14 0 0114.278 0z" />
  <path d="M124.018 78.02c-36.664-24.978-58.825-8.391-96.521-7.855 29.671 19.01 50.037 26.525 63.91 57.37z"
    fill="#ffc5bb" />
  <path
    d="M88.124 74.093c-10.734.131-21.18 3.58-34.793 3.773 13.563 8.69 24.094 13.646 32.252 22.924 8.311-7.562 18.077-13.827 28.877-18.43-9.922-6.553-18.217-8.366-26.336-8.267z"
    fill="#ff9298" />
  <path d="M183.62 69.83c31.656-32.21 56.67-27.13 93.22-36.37-23.738 26.044-37.989 38.08-43.404 71.466z" fill="none"
    stroke="#000" stroke-width="13.464" />
  <path d="M177.195 76.662c28.947-33.619 66.57-34.456 103.12-43.697-23.738 26.044-47.313 42.91-52.728 76.296z"
    fill="#ffc5bb" />
  <path
    d="M259.16 44.6c-33.842 2.217-54.123 17.5-73.885 30.628 10.272 3.678 28.94 21.23 38.504 25.772-5.738-12.285 16.286-48.644 35.381-56.4z"
    fill="#ff9298" />
</svg>